<svg width="74" height="58" viewBox="0 0 74 58" fill="none" xmlns="http://www.w3.org/2000/svg">
<path d="M13.0156 -5.86609e-05C12.8906 -5.86609e-05 12.75 0.0155665 12.625 0.0343165C7.78281 0.864004 2.925 11.6093 1.3125 15.4999H36.75L38.6094 11.7656C36.6719 8.64057 33.0938 3.89682 29.5 4.09682C27.1406 4.22182 22.625 9.40619 22.625 9.40619C22.625 9.40619 17.0938 -0.0484962 13.0156 -5.86609e-05ZM43.5 8.31244L38.5 18.3124H26.0469L19.6875 33.1562C23.125 33.6718 26.1562 35.4531 28.2812 37.9999H41.9688C42.7188 37.0937 43.5781 36.2968 44.5312 35.6093L49 15.4999H56.6406L59.1875 8.31244H43.5ZM0.28125 18.3124V30.8124L2.40156 31.3593L7.99531 18.3124H0.28125ZM11.0484 18.3124L5.14687 32.0781L9.14062 33.1249L15.4844 18.3124H11.0484ZM18.5469 18.3124L11.8875 33.8437L12.4656 33.9999C13.7813 33.4687 15.2031 33.1249 16.6875 33.0312L22.9844 18.3124H18.5469ZM51.25 18.3124L47.7969 33.8593C49.2969 33.3124 50.9375 32.9999 52.625 32.9999C58.9219 32.9999 64.2812 37.2343 65.9688 42.9999H73.7188V30.4218L66.4531 27.9999L64.0312 18.3124H58.6094H51.25ZM54.0312 20.4999H61.2188L63.1719 28.3124H52.0781L53.7656 21.5624L54.0312 20.4999ZM17.625 35.8124C11.4812 35.8124 6.53125 40.7656 6.53125 46.9062C6.53125 53.0468 11.4812 57.9999 17.625 57.9999C23.7656 57.9999 28.7188 53.0468 28.7188 46.9062C28.7188 40.7656 23.7656 35.8124 17.625 35.8124ZM52.625 35.8124C46.4844 35.8124 41.5312 40.7656 41.5312 46.9062C41.5312 53.0468 46.4844 57.9999 52.625 57.9999C58.7656 57.9999 63.7188 53.0468 63.7188 46.9062C63.7188 40.7656 58.7656 35.8124 52.625 35.8124ZM2.52813 40.8124L0.590625 50.4999H4.19219C3.88437 49.3593 3.71875 48.1406 3.71875 46.9062C3.71875 44.7187 4.22656 42.6562 5.13125 40.8124H2.52813ZM30.125 40.8124C31.0156 42.6562 31.5312 44.7187 31.5312 46.9062C31.5312 48.1406 31.3594 49.3593 31.0625 50.4999H39.1875C38.8906 49.3593 38.7188 48.1406 38.7188 46.9062C38.7188 44.7187 39.2344 42.6562 40.125 40.8124H30.125ZM17.625 41.9062C18.9511 41.9062 20.2229 42.433 21.1605 43.3707C22.0982 44.3083 22.625 45.5801 22.625 46.9062C22.625 48.2323 22.0982 49.504 21.1605 50.4417C20.2229 51.3794 18.9511 51.9062 17.625 51.9062C16.2989 51.9062 15.0271 51.3794 14.0895 50.4417C13.1518 49.504 12.625 48.2323 12.625 46.9062C12.625 45.5801 13.1518 44.3083 14.0895 43.3707C15.0271 42.433 16.2989 41.9062 17.625 41.9062ZM52.625 41.9062C53.9511 41.9062 55.2229 42.433 56.1605 43.3707C57.0982 44.3083 57.625 45.5801 57.625 46.9062C57.625 48.2323 57.0982 49.504 56.1605 50.4417C55.2229 51.3794 53.9511 51.9062 52.625 51.9062C51.2989 51.9062 50.0271 51.3794 49.0895 50.4417C48.1518 49.504 47.625 48.2323 47.625 46.9062C47.625 45.5801 48.1518 44.3083 49.0895 43.3707C50.0271 42.433 51.2989 41.9062 52.625 41.9062ZM66.4844 45.8124C66.5156 46.1718 66.5312 46.5312 66.5312 46.9062C66.5312 48.5781 66.2344 50.1718 65.6875 51.6718L73.7188 48.4531V45.8124H66.4844Z" fill="#E32719"/>
</svg>
