<svg width="12" height="9" viewBox="0 0 12 9" fill="none" xmlns="http://www.w3.org/2000/svg">
<path d="M4.45851 1.47057C4.52094 1.25721 4.66658 1.07351 4.86342 0.959871C5.06026 0.846227 5.29217 0.811944 5.50815 0.864561L10.6916 2.12814C10.9076 2.18082 11.0899 2.31608 11.1985 2.50418C11.3071 2.69228 11.3331 2.91782 11.2707 3.13119L9.77327 8.25197C9.70787 8.46201 9.56164 8.64177 9.36608 8.75253C9.17051 8.86329 8.94125 8.89617 8.72769 8.84411C8.51412 8.79205 8.33333 8.6592 8.22425 8.47419C8.11518 8.28917 8.08655 8.06678 8.14452 7.85492L9.01009 4.71348L1.95806 8.78497C1.76118 8.89864 1.52922 8.93291 1.3132 8.88025C1.09719 8.8276 0.914805 8.69232 0.806184 8.50418C0.697562 8.31604 0.671599 8.09046 0.734004 7.87705C0.796409 7.66364 0.942071 7.4799 1.13895 7.36623L8.19097 3.29474L5.03763 2.47362C4.82166 2.42094 4.63933 2.28568 4.53073 2.09758C4.42213 1.90948 4.39615 1.68394 4.45851 1.47057Z" fill="white"/>
</svg>
