<svg width="416" height="122" viewBox="0 0 416 122" fill="none" xmlns="http://www.w3.org/2000/svg">
<path d="M75.678 121.982L64.8059 95.7211L72.12 78.0525L82.9861 104.328L75.678 121.982Z" fill="#1F388A"/>
<path d="M99.8704 111.962L82.2299 104.642L82.1567 104.475L71.3425 78.3728L88.9952 85.6959L99.8704 111.962Z" fill="#1F388A"/>
<path d="M83.1599 102.623L80.858 103.578L45.4185 17.9889L46.2782 16.8086L47.7203 17.0343L83.1599 102.623Z" fill="white"/>
<path d="M80.6202 104.151L44.9185 17.9279L46.0831 16.3328L48.0344 16.6408L48.1289 16.8665L83.7361 102.861L80.6202 104.151ZM45.9185 18.0499L81.0928 103.005L82.5806 102.389L47.4093 17.4308L46.4764 17.2844L45.9185 18.0499Z" fill="#1F388A"/>
<path d="M36.7261 30.6708L39.3176 0L62.8271 19.8555L46.4732 17.2874L36.7261 30.6708ZM40.0523 1.769L37.8694 27.6117L46.0829 16.3328" fill="#1F388A"/>
<path d="M40.092 0.714617L39.2808 1.05078L45.8743 16.9747L46.6855 16.6385L40.092 0.714617Z" fill="#1F388A"/>
<path d="M17.6466 77.9215L0 70.6076L26.2534 59.7283L43.9122 67.0452L17.6466 77.9215Z" fill="#1F388A"/>
<path d="M10.0215 94.8123L17.3326 77.1589L17.5003 77.0887L43.5891 66.2673L36.2749 83.9329L10.0215 94.8123Z" fill="#1F388A"/>
<path d="M19.3509 78.0921L18.3997 75.7894L103.953 40.3362L105.133 41.1963L104.907 42.6389L19.3509 78.0921Z" fill="white"/>
<path d="M19.1131 78.6655L17.8235 75.5514L104.011 39.8359L105.608 41.001L105.3 42.953L105.075 43.0476L19.1131 78.6655ZM18.9729 76.0272L19.5888 77.5187L104.511 42.3308L104.657 41.3975L103.895 40.8394L18.9729 76.0272Z" fill="#1F388A"/>
<path d="M102.09 57.7549L104.657 41.3946L91.2756 31.6438L121.935 34.2363L102.09 57.7549ZM120.166 34.9683L94.3336 32.7845L105.608 41.0012" fill="#1F388A"/>
<path d="M120.883 34.1979L104.967 40.7974L105.303 41.6088L121.22 35.0093L120.883 34.1979Z" fill="#1F388A"/>
<path d="M109.953 77.6531L117.029 94.7728L90.7727 83.8903L84.6201 69.0094L85.7634 69.4791L88.7056 70.7052L89.861 71.1719L95.6172 73.563L96.7575 74.0327L98.1508 74.6123L104.666 77.3146H104.675L105.928 77.833L107.081 78.3149L107.779 78.6016L107.922 78.6626L108.343 77.6531L108.392 77.5067L108.413 77.4731L108.727 76.7015L108.752 76.6679L108.8 76.5215L109.209 75.5486L109.026 75.4754L108.331 75.1887L107.178 74.7068L105.962 74.2035L105.373 74.4415L104.245 73.9717L104.822 73.7338L100.148 71.7971L98.9923 71.3182L96.8063 70.4154L90.2909 67.7101L87.0104 66.3528L85.8579 65.8709L100.797 59.6917L127.054 70.5588L109.953 77.6531Z" fill="#1F388A"/>
<path d="M108.63 75.7894L108.343 76.4848L108.319 76.5336L108.221 76.7623L108.102 77.0765L108.005 77.3022L107.996 77.3388L107.682 78.086L107.538 78.025L106.84 77.7353L105.688 77.2564L104.438 76.7379L97.9131 74.0326L96.5167 73.4561L95.3765 72.9864L89.6203 70.6074L88.4648 70.1255L85.5227 68.8994L84.3794 68.4328L22.1315 42.645L21.9028 41.2024L23.0797 40.3362L85.2818 66.1117L86.4343 66.5936L89.7148 67.9509L96.2301 70.644L98.4161 71.556L99.5686 72.0379L104.246 73.9716L105.374 74.4413L106.599 74.9476L107.755 75.4295L108.45 75.7162L108.63 75.7894Z" fill="white"/>
<path d="M109.029 75.4753L108.331 75.1856L107.178 74.7037L100.148 71.794L98.9953 71.3121L96.8093 70.4123L90.294 67.71L87.0135 66.3528L85.861 65.8739L23.0217 39.833L21.4241 40.9981L21.7381 42.9471L84.6232 69.0093L85.7634 69.479L88.7086 70.7051L89.8641 71.1748L95.6203 73.5691L96.7605 74.0388L98.1539 74.6152L104.666 77.3206H104.678L105.928 77.8391L107.081 78.321L107.779 78.6107L107.922 78.6717L108.343 77.6622L108.392 77.5188L108.416 77.4822L108.73 76.7136L108.755 76.677L108.803 76.5337L109.212 75.5607L109.029 75.4753ZM104.809 74.6823L106.023 75.1886L107.175 75.6583L107.87 75.9572L108.063 76.0304L107.941 76.3293L107.916 76.3659L107.867 76.5215L107.855 76.5337L107.663 76.9668L107.59 77.1345L107.578 77.1711L107.434 77.5188L107.303 77.4578L106.608 77.1711H106.596L105.456 76.6892H105.444L104.194 76.1707L97.6813 73.4776L96.288 72.8889H96.2758L95.1477 72.4192L89.3915 70.0402L88.2391 69.5583L85.2939 68.3322H85.2817L84.1537 67.8625L22.5277 42.331L22.3723 41.3946L23.1406 40.8426L84.7024 66.3528L85.8549 66.8347L89.1354 68.1919L95.6477 70.8851L97.8337 71.8001L98.9862 72.2698L103.66 74.2065L104.809 74.6823Z" fill="#1F388A"/>
<path d="M24.9455 57.7549L5.09766 34.2363L35.7566 31.6438L22.3753 41.3946L24.9455 57.7549ZM6.86598 34.9683L23.5888 54.7841L21.4241 40.9981" fill="#1F388A"/>
<path d="M6.15098 34.1948L5.81494 35.0063L21.7327 41.6024L22.0688 40.7908L6.15098 34.1948Z" fill="#1F388A"/>
<path d="M27.2046 111.975L38.0767 85.711L55.7355 78.394L44.8512 104.664L27.2046 111.975Z" fill="#1F388A"/>
<path d="M51.3971 122L44.0891 104.347L54.9582 78.0708L62.2723 95.7364L51.3971 122Z" fill="#1F388A"/>
<path d="M46.1776 103.578L43.8757 102.623L79.3122 17.0343L80.7543 16.8086L81.6141 17.9889L46.1776 103.578Z" fill="white"/>
<path d="M46.4153 104.151L43.3025 102.861L79.0042 16.6407L80.9555 16.3357L82.1171 17.9308L46.4153 104.151ZM44.4488 102.385L45.9397 103.001L81.114 18.0467L80.5591 17.2842L79.6262 17.4306L44.4488 102.385Z" fill="#1F388A"/>
<path d="M90.3063 30.6708L80.5592 17.2843L64.2053 19.8524L87.7148 0L90.3063 30.6708ZM86.9831 1.769L67.1749 18.4983L80.9556 16.3328" fill="#1F388A"/>
<path d="M86.9409 0.714759L80.344 16.637L81.1551 16.9733L87.7521 1.0511L86.9409 0.714759Z" fill="#1F388A"/>
<path d="M147.591 20.4441H167.548C179.323 20.4441 186.908 26.5014 186.908 36.8165V36.9507C186.908 47.9337 178.46 53.7226 166.884 53.7226H160.496V67.0328H147.591V20.4441ZM166.615 43.6058C171.207 43.6058 174 41.2085 174 37.5485V37.4143C174 33.4218 171.207 31.2929 166.548 31.2929H160.493V43.6058H166.615Z" fill="#E32213"/>
<path d="M192.356 20.4441H229.811V31.4241H205.128V38.4787H227.482V48.6596H205.128V56.0467H230.144V67.0267H192.356V20.4441Z" fill="#E32213"/>
<path d="M248.101 31.7596H234.131V20.4441H274.98V31.7596H261.01V67.0328H248.104V31.7596H248.101Z" fill="#E32213"/>
<path d="M280.629 20.4441H302.648C309.767 20.4441 314.691 22.3076 317.816 25.501C320.544 28.1636 321.941 31.7565 321.941 36.3498V36.484C321.941 43.6058 318.148 48.3302 312.361 50.7916L323.471 67.0298H308.569L299.187 52.9205H293.532V67.0298H280.626V20.4441H280.629ZM302.05 42.8067C306.441 42.8067 308.968 40.6778 308.968 37.2831V37.1489C308.968 33.4889 306.306 31.6254 301.983 31.6254H293.535V42.8067H302.05Z" fill="#E32213"/>
<path d="M327.855 46.6009V20.4441H340.962V46.3325C340.962 53.0547 344.356 56.248 349.545 56.248C354.734 56.248 358.127 53.1858 358.127 46.6649V20.4441H371.234V46.2654C371.234 61.3049 362.652 67.896 349.414 67.896C336.173 67.896 327.855 61.1768 327.855 46.6009Z" fill="#E32213"/>
<path d="M375.35 60.1094L382.536 51.5236C387.128 55.1836 392.25 57.1143 397.64 57.1143C401.097 57.1143 402.96 55.9156 402.96 53.9209V53.7867C402.96 51.8561 401.43 50.7916 395.11 49.3276C385.198 47.0645 377.548 44.2707 377.548 34.6876V34.5534C377.548 25.9006 384.402 19.645 395.576 19.645C403.494 19.645 409.68 21.7739 414.735 25.8335L408.284 34.953C404.024 31.9579 399.369 30.3597 395.244 30.3597C392.116 30.3597 390.588 31.6895 390.588 33.3548V33.489C390.588 35.6179 392.186 36.5512 398.637 38.0152C409.348 40.3454 416 43.8041 416 52.524V52.6582C416 62.1742 408.482 67.832 397.174 67.832C388.923 67.8289 381.073 65.2334 375.35 60.1094Z" fill="#E32213"/>
<path d="M147.1 79.8521H149.725L158.091 92.3937L166.457 79.8521H169.082V102.831H166.49V84.2166L158.124 96.5264H157.993L149.624 84.2502V102.831H147.097V79.8521H147.1Z" fill="#1F388A"/>
<path d="M186.707 79.6873H189.134L199.6 102.831H196.811L194.119 96.7581H181.618L178.896 102.831H176.237L186.707 79.6873ZM193.103 94.4279L187.887 82.7098L182.637 94.4279H193.103Z" fill="#1F388A"/>
<path d="M206.719 79.8521H209.149L223.619 98.268V79.8521H226.147V102.831H224.079L209.247 83.9879V102.831H206.719V79.8521Z" fill="#1F388A"/>
<path d="M243.766 79.6873H246.193L256.659 102.831H253.87L251.181 96.7581H238.677L235.955 102.831H233.296L243.766 79.6873ZM250.165 94.4279L244.949 82.7098L239.699 94.4279H250.165Z" fill="#1F388A"/>
<path d="M261.418 91.4084V91.3413C261.418 85.04 266.047 79.4585 272.937 79.4585C276.809 79.4585 279.205 80.5748 281.501 82.5115L279.827 84.4818C278.056 82.9385 276.086 81.8558 272.839 81.8558C267.754 81.8558 264.111 86.1563 264.111 91.2772V91.3443C264.111 96.8252 267.62 100.897 273.199 100.897C275.824 100.897 278.254 99.8783 279.827 98.6003V92.8876H272.839V90.5575H282.321V99.7166C280.19 101.62 276.974 103.227 273.102 103.227C265.882 103.224 261.418 97.972 261.418 91.4084Z" fill="#1F388A"/>
<path d="M290.754 79.8521H307.358V82.2158H293.346V90.0604H305.879V92.4242H293.346V100.467H307.52V102.831H290.751V79.8521H290.754Z" fill="#1F388A"/>
<path d="M315.364 79.8521H317.989L326.358 92.3937L334.727 79.8521H337.353V102.831H334.761V84.2166L326.392 96.5264H326.261L317.892 84.2502V102.831H315.364V79.8521Z" fill="#1F388A"/>
<path d="M346.469 79.8521H363.072V82.2158H349.06V90.0604H361.594V92.4242H349.06V100.467H363.234V102.831H346.465V79.8521H346.469Z" fill="#1F388A"/>
<path d="M371.045 79.8521H373.472L387.945 98.268V79.8521H390.472V102.831H388.405L373.573 83.9879V102.831H371.045V79.8521Z" fill="#1F388A"/>
<path d="M405.661 82.2494H397.951V79.8521H415.997V82.2494H408.286V102.831H405.661V82.2494Z" fill="#1F388A"/>
<path d="M415.784 73.0688H146.642V74.3041H415.784V73.0688Z" fill="#2D3B86"/>
</svg>
