<svg width="32" height="23" viewBox="0 0 32 23" fill="none" xmlns="http://www.w3.org/2000/svg">
<path fill-rule="evenodd" clip-rule="evenodd" d="M0 20.1095C0 21.2532 0.895431 22.1804 2 22.1804H30C31.1046 22.1804 32 21.2532 32 20.1095C32 18.9657 31.1046 18.0385 30 18.0385H2C0.895431 18.0385 0 18.9657 0 20.1095ZM0 11.1353C0 12.2791 0.895431 13.2063 2 13.2063H30C31.1046 13.2063 32 12.2791 32 11.1353C32 9.99153 31.1046 9.06433 30 9.06433H2C0.895431 9.06433 0 9.99153 0 11.1353ZM0 2.16113C0 3.30489 0.895431 4.23209 2 4.23209H30C31.1046 4.23209 32 3.30489 32 2.16113C32 1.01737 31.1046 0.0901699 30 0.0901699H2C0.895431 0.0901699 0 1.01737 0 2.16113Z" fill="white"/>
</svg>
